<svg xmlns="http://www.w3.org/2000/svg" width="749" height="749" viewBox="0 0 749 749">
<path d="M 385.96 510.84 C379.07,514.78 373.22,517.99 372.96,517.97 C372.30,517.93 371.99,517.75 334.50,496.01 C315.80,485.17 285.42,467.62 267.00,457.02 C248.57,446.42 231.48,436.52 229.00,435.03 C226.52,433.54 219.77,429.59 214.00,426.25 C208.23,422.91 190.45,412.64 174.50,403.42 C158.55,394.20 143.02,385.23 140.00,383.49 C122.68,373.52 119.56,371.37 118.89,368.98 C118.51,367.62 118.15,329.26 118.10,283.75 C118.02,220.06 118.28,201.00 119.20,201.00 C119.86,201.00 123.34,202.96 126.95,205.35 C130.55,207.75 136.88,211.87 141.00,214.51 C145.12,217.15 157.05,224.90 167.50,231.74 C194.44,249.36 261.62,293.03 273.50,300.65 C279.00,304.18 299.25,317.38 318.50,329.98 C337.75,342.58 356.88,355.04 361.00,357.67 C365.12,360.29 378.85,369.23 391.50,377.54 C404.15,385.85 425.08,399.55 438.00,407.98 C486.10,439.35 495.00,445.27 495.00,445.89 C495.00,446.56 477.17,457.47 449.25,473.87 C439.76,479.44 424.46,488.43 415.25,493.84 C406.04,499.25 392.86,506.90 385.96,510.84 ZM 385.81 734.16 C379.93,737.92 374.85,741.00 374.52,741.00 C374.19,741.00 374.05,697.37 374.21,644.04 C374.46,559.42 374.69,546.88 376.00,545.61 C376.83,544.81 382.23,541.26 388.00,537.72 C393.77,534.18 412.90,522.39 430.50,511.50 C448.10,500.62 467.45,488.70 473.50,485.00 C479.55,481.31 488.33,475.91 493.00,473.00 C497.67,470.10 503.52,466.50 506.00,465.02 C512.36,461.21 592.46,412.00 604.50,404.51 C622.08,393.57 630.15,388.81 630.51,389.17 C630.70,389.37 630.59,432.60 630.27,485.24 L 629.68 580.96 L 622.09 585.88 C617.92,588.58 609.78,593.70 604.00,597.26 C598.22,600.81 580.45,611.94 564.50,622.00 C548.55,632.06 531.00,643.09 525.50,646.51 C520.00,649.92 505.15,659.23 492.50,667.20 C479.85,675.16 463.88,685.19 457.00,689.48 C450.12,693.77 440.45,699.85 435.50,702.98 C430.55,706.12 419.75,712.88 411.50,718.01 C403.25,723.13 391.69,730.40 385.81,734.16 ZM 278.74 250.17 C268.97,256.13 260.42,261.00 259.74,261.00 C258.63,260.99 251.35,256.42 213.00,231.63 C207.23,227.90 185.66,213.97 165.08,200.67 C144.50,187.37 127.51,176.02 127.31,175.43 C127.12,174.85 130.46,172.20 134.73,169.54 C139.00,166.89 147.00,161.91 152.50,158.48 C158.00,155.05 171.05,146.96 181.50,140.51 C191.95,134.06 206.12,125.30 213.00,121.05 C219.88,116.80 233.38,108.45 243.00,102.50 C252.62,96.55 270.62,85.38 283.00,77.67 C307.03,62.72 331.72,47.45 352.00,35.00 C358.88,30.78 371.55,22.98 380.16,17.66 C388.78,12.35 396.32,8.00 396.91,8.00 C397.69,8.00 398.00,32.35 398.00,92.33 L 398.00 176.66 L 383.75 185.50 C344.59,209.80 332.88,217.04 326.00,221.21 C321.88,223.71 313.55,228.81 307.50,232.55 C301.45,236.28 288.51,244.21 278.74,250.17 ZM 533.27 421.34 C525.44,426.10 518.69,429.97 518.27,429.93 C517.84,429.89 515.25,428.36 512.50,426.54 C509.75,424.71 490.62,412.19 470.00,398.71 C449.38,385.23 423.95,368.59 413.50,361.71 C388.37,345.19 329.82,306.87 303.25,289.56 C291.56,281.94 282.02,275.44 282.04,275.11 C282.06,274.77 287.57,271.31 294.29,267.42 C301.00,263.53 318.42,253.21 333.00,244.51 C377.85,217.71 386.30,212.90 387.70,213.44 C389.24,214.03 403.25,222.99 430.69,240.95 C441.24,247.85 456.77,257.97 465.19,263.44 C473.61,268.91 490.40,279.86 502.50,287.78 C514.60,295.69 525.85,303.03 527.50,304.09 C529.15,305.14 539.61,311.97 550.74,319.25 C561.87,326.54 582.71,340.10 597.05,349.39 C611.39,358.67 622.76,366.63 622.31,367.06 C621.63,367.73 578.39,394.13 554.50,408.47 C550.65,410.79 541.09,416.57 533.27,421.34 ZM 347.76 582.92 C347.90,612.11 347.90,659.83 347.76,688.96 L 347.50 741.93 L 335.00 734.62 C325.04,728.80 263.15,692.53 209.50,661.07 C205.10,658.49 197.23,653.88 192.00,650.83 C172.24,639.29 122.42,609.71 120.65,608.47 C120.02,608.03 119.50,607.78 119.43,607.45 C119.29,606.74 121.16,605.63 128.26,601.41 C129.10,600.91 130.01,600.37 131.00,599.78 C148.92,589.09 282.59,512.27 293.50,506.37 L 299.50 503.13 L 323.50 516.49 L 347.50 529.84 ZM 478.86 227.64 C473.01,231.14 468.06,233.96 467.86,233.92 C467.66,233.87 462.77,230.98 457.00,227.49 C451.23,224.00 441.68,218.30 435.78,214.82 L 425.06 208.50 L 425.03 107.69 C425.01,27.30 425.25,7.03 426.25,7.64 C429.32,9.48 447.10,20.95 465.00,32.63 C475.73,39.62 486.75,46.78 489.50,48.53 C492.25,50.28 501.02,55.98 509.00,61.18 C516.97,66.38 526.65,72.67 530.50,75.16 C534.35,77.65 543.35,83.51 550.50,88.18 C564.47,97.32 598.08,119.14 614.74,129.89 C620.37,133.53 624.98,136.83 624.99,137.23 C624.99,137.63 623.99,138.58 622.75,139.35 C621.51,140.12 607.45,148.75 591.50,158.52 C575.55,168.30 560.25,177.75 557.50,179.51 C554.75,181.28 541.92,189.18 529.00,197.06 C516.08,204.94 501.90,213.62 497.50,216.34 C493.10,219.05 484.71,224.14 478.86,227.64 Z" fill="rgb(237,57,2)"/>
</svg>
